<svg width="83" height="83" viewBox="0 0 83 83" fill="none" xmlns="http://www.w3.org/2000/svg">
<g clip-path="url(#clip0)">
<path d="M63.2566 10.0692C61.1719 10.0692 59.4811 11.7591 59.4811 13.8449V30.2074C59.4811 30.9017 58.9155 31.4664 58.2223 31.4664C57.5292 31.4664 56.9638 30.9017 56.9638 30.2074V6.29318C56.9638 4.20727 55.2723 2.51717 53.1878 2.51717C51.1033 2.51717 49.4119 4.20744 49.4119 6.29318V27.6904C49.4119 28.3846 48.8465 28.9489 48.1533 28.9489C47.46 28.9489 46.8944 28.3846 46.8944 27.6904V3.77601C46.8941 1.6901 45.2043 0 43.1186 0C41.0327 0 39.3428 1.69028 39.3428 3.77601V27.6906C39.3428 28.3847 38.7784 28.9491 38.0843 28.9491C37.3896 28.9491 37.276 28.3847 37.276 27.6906V8.81052C37.276 6.72444 35.5859 5.03451 33.5 5.03451C31.4141 5.03451 29.724 6.72461 29.724 8.81052C29.724 8.81052 29.7589 22.6754 29.7589 24.0944C29.7589 25.5135 30.2188 26.0879 30.4463 26.3873C33.2852 30.1268 35.9645 33.6536 36.3427 34.1431C38.49 36.9214 38.6895 35.6935 44.035 36.9708C44.0388 36.9711 44.0417 36.9725 44.045 36.973C44.0456 36.9735 44.0463 36.9735 44.047 36.9739C44.0477 36.9742 44.0477 36.9742 44.0477 36.9742C44.3886 37.0524 44.7222 37.1494 45.049 37.2625C47.688 38.1679 53.7082 40.3965 53.7082 40.3965C54.8452 40.8012 55.4566 41.975 55.0765 43.0231C54.6857 44.0623 53.4567 44.5812 52.3101 44.1795C52.3101 44.1795 49.8854 43.4811 49.6423 43.4076C49.3993 43.3336 48.7399 43.208 49.3193 43.9577C49.8988 44.7073 57.0993 54.0229 57.0993 54.0229C57.6581 54.7454 57.525 55.7832 56.8027 56.3406C56.0808 56.8994 55.0429 56.7663 54.4848 56.044L49.4324 49.5081C49.2462 49.2677 49.0561 49.1024 48.8154 49.2878C48.5753 49.4741 48.5308 49.8198 48.7168 50.0612L55.1166 58.3405C55.6749 59.0628 55.5425 60.0998 54.8198 60.6584C54.0977 61.2167 53.0608 61.0838 52.5025 60.3618L46.1016 52.0814C45.916 51.8415 45.5696 51.797 45.3293 51.9826C45.0895 52.168 45.0445 52.5151 45.2302 52.7554L50.957 60.1637C51.5149 60.8859 51.3816 61.9244 50.66 62.4814C49.9381 63.0399 48.9002 62.9068 48.3425 62.1847L41.9421 53.905C41.7565 53.6643 41.4097 53.6207 41.17 53.8066C40.9298 53.9915 40.8847 54.3385 41.0709 54.579L45.4495 60.2438C46.0081 60.9661 45.8747 62.0033 45.1526 62.5622C44.4315 63.1193 43.3933 62.9876 42.8347 62.2655C42.8347 62.2655 34.8236 51.9005 33.7403 50.4989C33.7203 50.4735 33.6993 50.4459 33.6782 50.4174C30.0909 45.7203 32.1612 43.5126 29.7766 40.1767L29.4652 39.7611C28.7525 38.8338 27.6 37.2908 26.2673 35.4914L24.6273 33.3016C23.1166 30.9737 20.1691 30.193 18.0093 31.5267C15.8571 32.891 15.3224 35.8669 16.8134 38.1876C16.8134 38.1876 24.585 50.6314 28.0881 55.956C28.5221 56.6169 28.99 57.2588 29.4962 57.8777C29.4965 57.878 29.4967 57.8785 29.497 57.8789C29.4977 57.8799 29.4986 57.8806 29.4989 57.8813C29.5042 57.8877 29.5094 57.8942 29.5142 57.9003C33.7172 63.2991 36.4934 68.0774 36.4934 72.7871C36.4934 74.3888 36.4689 77.9707 36.4251 80.1524C36.399 81.4566 36.1063 83.0005 38.4231 83.0005C40.7399 83.0005 56.2311 83.0005 57.7677 83.0005C59.7369 83.0005 59.6896 81.5247 59.7058 80.8767C59.9052 72.8769 59.7572 78.8546 59.7572 72.7873C59.7572 62.7132 66.9499 61.9261 67.0305 48.0635C67.0321 47.9824 67.0328 47.9037 67.0328 47.8291C67.0328 43.7824 67.0328 13.8452 67.0328 13.8452C67.0328 11.7591 65.3411 10.0692 63.2566 10.0692Z" fill="#FFD524"/>
</g>
<defs>
<clipPath id="clip0">
<rect width="83" height="83" fill="white"/>
</clipPath>
</defs>
</svg>
