<svg width="163" height="27" viewBox="0 0 163 27" fill="none" xmlns="http://www.w3.org/2000/svg">
<path d="M47.66 9.06C47.66 10.02 47.32 10.7933 46.64 11.38C45.96 11.9667 45.0933 12.3333 44.04 12.48V12.54C45.3467 12.6733 46.3467 13.04 47.04 13.64C47.7467 14.2267 48.1 14.9933 48.1 15.94C48.1 17.1933 47.5867 18.22 46.56 19.02C45.5467 19.8067 44.0533 20.2 42.08 20.2C41 20.2 40.04 20.1333 39.2 20C38.3733 19.8667 37.6533 19.6733 37.04 19.42V16.88C37.4533 17.08 37.92 17.2533 38.44 17.4C38.96 17.5333 39.4867 17.64 40.02 17.72C40.5533 17.7867 41.0467 17.82 41.5 17.82C42.7667 17.82 43.68 17.64 44.24 17.28C44.8133 16.9067 45.1 16.3867 45.1 15.72C45.1 15.04 44.6867 14.5467 43.86 14.24C43.0333 13.92 41.92 13.76 40.52 13.76H39.18V11.4H40.38C41.5133 11.4 42.3933 11.3267 43.02 11.18C43.6467 11.0333 44.0867 10.82 44.34 10.54C44.5933 10.26 44.72 9.92667 44.72 9.54C44.72 9.04667 44.5 8.66 44.06 8.38C43.6333 8.08667 42.9867 7.94 42.12 7.94C41.3867 7.94 40.6933 8.04667 40.04 8.26C39.4 8.47333 38.8 8.75333 38.24 9.1L36.92 7.08C37.6533 6.6 38.4667 6.22 39.36 5.94C40.2533 5.66 41.3133 5.52 42.54 5.52C44.1533 5.52 45.4067 5.85333 46.3 6.52C47.2067 7.18667 47.66 8.03333 47.66 9.06ZM60.3488 9.08V17.82H61.9488V23.92H59.2688V20H51.9288V23.92H49.2488V17.82H50.1688C50.6488 17.0867 51.0554 16.2533 51.3888 15.32C51.7221 14.3733 51.9888 13.3667 52.1888 12.3C52.3888 11.2333 52.5354 10.16 52.6288 9.08H60.3488ZM57.3688 11.32H55.1288C54.9688 12.5333 54.7488 13.6867 54.4688 14.78C54.1888 15.86 53.7954 16.8733 53.2888 17.82H57.3688V11.32ZM68.31 8.88C69.8167 8.88 71.01 9.31333 71.89 10.18C72.77 11.0333 73.21 12.2533 73.21 13.84V15.28H66.17C66.1967 16.12 66.4433 16.78 66.91 17.26C67.39 17.74 68.05 17.98 68.89 17.98C69.5967 17.98 70.2367 17.9133 70.81 17.78C71.3833 17.6333 71.9767 17.4133 72.59 17.12V19.42C72.0567 19.6867 71.49 19.88 70.89 20C70.3033 20.1333 69.59 20.2 68.75 20.2C67.6567 20.2 66.69 20 65.85 19.6C65.01 19.1867 64.35 18.5667 63.87 17.74C63.39 16.9133 63.15 15.8733 63.15 14.62C63.15 13.34 63.3633 12.28 63.79 11.44C64.23 10.5867 64.8367 9.94667 65.61 9.52C66.3833 9.09333 67.2833 8.88 68.31 8.88ZM68.33 11C67.7567 11 67.2767 11.1867 66.89 11.56C66.5167 11.9333 66.2967 12.5133 66.23 13.3H70.41C70.3967 12.6333 70.2233 12.0867 69.89 11.66C69.5567 11.22 69.0367 11 68.33 11ZM80.0664 20.2C78.4397 20.2 77.1797 19.7533 76.2864 18.86C75.4064 17.9533 74.9664 16.5333 74.9664 14.6C74.9664 13.2667 75.1931 12.18 75.6464 11.34C76.0997 10.5 76.7264 9.88 77.5264 9.48C78.3397 9.08 79.2731 8.88 80.3264 8.88C81.0731 8.88 81.7197 8.95333 82.2664 9.1C82.8264 9.24667 83.3131 9.42 83.7264 9.62L82.8464 11.92C82.3797 11.7333 81.9397 11.58 81.5264 11.46C81.1264 11.34 80.7264 11.28 80.3264 11.28C78.7797 11.28 78.0064 12.38 78.0064 14.58C78.0064 15.6733 78.2064 16.48 78.6064 17C79.0197 17.52 79.5931 17.78 80.3264 17.78C80.9531 17.78 81.5064 17.7 81.9864 17.54C82.4664 17.3667 82.9331 17.1333 83.3864 16.84V19.38C82.9331 19.6733 82.4531 19.88 81.9464 20C81.4531 20.1333 80.8264 20.2 80.0664 20.2ZM88.8798 13.3H90.9798C92.6598 13.3 93.8998 13.5667 94.6998 14.1C95.5132 14.6333 95.9198 15.44 95.9198 16.52C95.9198 17.5733 95.5465 18.42 94.7998 19.06C94.0532 19.6867 92.8198 20 91.0998 20H85.8998V9.08H88.8798V13.3ZM92.9398 16.56C92.9398 15.76 92.2665 15.36 90.9198 15.36H88.8798V17.94H90.9598C91.5465 17.94 92.0198 17.8333 92.3798 17.62C92.7532 17.4067 92.9398 17.0533 92.9398 16.56ZM114.725 20H111.705V8.24H108.205C108.125 8.85333 108.038 9.52 107.945 10.24C107.865 10.96 107.772 11.6933 107.665 12.44C107.572 13.1733 107.472 13.8733 107.365 14.54C107.258 15.1933 107.152 15.7733 107.045 16.28C106.872 17.1067 106.638 17.8133 106.345 18.4C106.065 18.9867 105.672 19.4333 105.165 19.74C104.672 20.0467 104.025 20.2 103.225 20.2C102.705 20.2 102.225 20.1267 101.785 19.98V17.5C101.958 17.5533 102.125 17.6 102.285 17.64C102.458 17.68 102.645 17.7 102.845 17.7C103.232 17.7 103.525 17.5 103.725 17.1C103.938 16.6867 104.152 15.92 104.365 14.8C104.445 14.3733 104.558 13.7067 104.705 12.8C104.852 11.8933 105.012 10.8333 105.185 9.62C105.372 8.39333 105.545 7.09333 105.705 5.72H114.725V20ZM122.587 8.88C124.094 8.88 125.287 9.31333 126.167 10.18C127.047 11.0333 127.487 12.2533 127.487 13.84V15.28H120.447C120.474 16.12 120.721 16.78 121.187 17.26C121.667 17.74 122.327 17.98 123.167 17.98C123.874 17.98 124.514 17.9133 125.087 17.78C125.661 17.6333 126.254 17.4133 126.867 17.12V19.42C126.334 19.6867 125.767 19.88 125.167 20C124.581 20.1333 123.867 20.2 123.027 20.2C121.934 20.2 120.967 20 120.127 19.6C119.287 19.1867 118.627 18.5667 118.147 17.74C117.667 16.9133 117.427 15.8733 117.427 14.62C117.427 13.34 117.641 12.28 118.067 11.44C118.507 10.5867 119.114 9.94667 119.887 9.52C120.661 9.09333 121.561 8.88 122.587 8.88ZM122.607 11C122.034 11 121.554 11.1867 121.167 11.56C120.794 11.9333 120.574 12.5133 120.507 13.3H124.687C124.674 12.6333 124.501 12.0867 124.167 11.66C123.834 11.22 123.314 11 122.607 11ZM137.444 9.08V11.32H132.884V20H129.904V9.08H137.444ZM146.615 9.08H149.895L145.575 14.32L150.275 20H146.895L142.435 14.46V20H139.455V9.08H142.435V14.38L146.615 9.08ZM161.367 14.52C161.367 16.3333 160.887 17.7333 159.927 18.72C158.98 19.7067 157.687 20.2 156.047 20.2C155.033 20.2 154.127 19.98 153.327 19.54C152.54 19.1 151.92 18.46 151.467 17.62C151.013 16.7667 150.787 15.7333 150.787 14.52C150.787 12.7067 151.26 11.3133 152.207 10.34C153.153 9.36667 154.453 8.88 156.107 8.88C157.133 8.88 158.04 9.1 158.827 9.54C159.613 9.98 160.233 10.62 160.687 11.46C161.14 12.2867 161.367 13.3067 161.367 14.52ZM153.827 14.52C153.827 15.6 154 16.42 154.347 16.98C154.707 17.5267 155.287 17.8 156.087 17.8C156.873 17.8 157.44 17.5267 157.787 16.98C158.147 16.42 158.327 15.6 158.327 14.52C158.327 13.44 158.147 12.6333 157.787 12.1C157.44 11.5533 156.867 11.28 156.067 11.28C155.28 11.28 154.707 11.5533 154.347 12.1C154 12.6333 153.827 13.44 153.827 14.52Z" fill="#F0F0F4"/>
<path fill-rule="evenodd" clip-rule="evenodd" d="M25 13.5C25 20.4037 19.4037 26 12.5 26C5.59625 26 0 20.4037 0 13.5C0 6.59625 5.59625 1 12.5 1C19.4037 1 25 6.59625 25 13.5Z" fill="#FC1F24"/>
<path fill-rule="evenodd" clip-rule="evenodd" d="M22.1155 13.5002C22.1155 18.8111 17.8104 23.1156 12.5002 23.1156C7.18989 23.1156 2.88477 18.8111 2.88477 13.5002C2.88477 8.18926 7.18989 3.88477 12.5002 3.88477C17.8104 3.88477 22.1155 8.18926 22.1155 13.5002Z" fill="#FED837"/>
<path fill-rule="evenodd" clip-rule="evenodd" d="M17.3088 13.4998C17.3088 14.7749 16.8023 15.9978 15.9006 16.8994C14.999 17.801 13.7762 18.3075 12.5011 18.3075C11.226 18.3075 10.0031 17.801 9.1015 16.8994C8.19988 15.9978 7.69336 14.7749 7.69336 13.4998C7.69336 12.2248 8.19988 11.0019 9.1015 10.1003C10.0031 9.19866 11.226 8.69214 12.5011 8.69214C13.7762 8.69214 14.999 9.19866 15.9006 10.1003C16.8023 11.0019 17.3088 12.2248 17.3088 13.4998Z" fill="#FC1F24"/>
</svg>
