<svg width="96" height="16" viewBox="0 0 96 16" fill="none" xmlns="http://www.w3.org/2000/svg">
<path d="M26.9961 5.4375C26.9961 5.98828 26.8008 6.44336 26.4102 6.80273C26.0195 7.16211 25.4902 7.39062 24.8223 7.48828V7.52344C25.6074 7.60156 26.209 7.81836 26.627 8.17383C27.0488 8.5293 27.2598 8.99219 27.2598 9.5625C27.2598 10.3516 26.9395 10.9746 26.2988 11.4316C25.6621 11.8887 24.7793 12.1172 23.6504 12.1172C22.3926 12.1172 21.3828 11.9629 20.6211 11.6543V10.1309C20.9883 10.3066 21.418 10.4453 21.9102 10.5469C22.4062 10.6445 22.8691 10.6934 23.2988 10.6934C24.7402 10.6934 25.4609 10.2734 25.4609 9.43359C25.4609 9.05469 25.2285 8.76367 24.7637 8.56055C24.3027 8.35742 23.6191 8.25586 22.7129 8.25586H21.9102V6.83789H22.6309C23.5371 6.83789 24.1973 6.75195 24.6113 6.58008C25.0254 6.4082 25.2324 6.12305 25.2324 5.72461C25.2324 5.43164 25.1016 5.19922 24.8398 5.02734C24.582 4.85156 24.1934 4.76367 23.6738 4.76367C22.8691 4.76367 22.0918 4.99609 21.3418 5.46094L20.5508 4.24805C21.0391 3.92383 21.5566 3.6875 22.1035 3.53906C22.6504 3.38672 23.2578 3.31055 23.9258 3.31055C24.8594 3.31055 25.6035 3.50586 26.1582 3.89648C26.7168 4.28711 26.9961 4.80078 26.9961 5.4375ZM32.8203 10.6934V6.79102H31.4785C31.3809 7.51758 31.2461 8.20703 31.0742 8.85938C30.9062 9.51172 30.6719 10.123 30.3711 10.6934H32.8203ZM35.5684 14.3496H33.9629V12H29.5566V14.3496H27.9512V10.6934H28.502C28.877 10.1113 29.1914 9.37695 29.4453 8.49023C29.6992 7.60352 29.877 6.58984 29.9785 5.44922H34.6074V10.6934H35.5684V14.3496ZM39.4004 6.59766C39.0215 6.59766 38.7246 6.71875 38.5098 6.96094C38.2949 7.19922 38.1719 7.53906 38.1406 7.98047H40.6484C40.6406 7.53906 40.5254 7.19922 40.3027 6.96094C40.0801 6.71875 39.7793 6.59766 39.4004 6.59766ZM39.6523 12.1172C38.5977 12.1172 37.7734 11.8262 37.1797 11.2441C36.5859 10.6621 36.2891 9.83789 36.2891 8.77148C36.2891 7.67383 36.5625 6.82617 37.1094 6.22852C37.6602 5.62695 38.4199 5.32617 39.3887 5.32617C40.3145 5.32617 41.0352 5.58984 41.5508 6.11719C42.0664 6.64453 42.3242 7.37305 42.3242 8.30273V9.16992H38.0996C38.1191 9.67773 38.2695 10.0742 38.5508 10.3594C38.832 10.6445 39.2266 10.7871 39.7344 10.7871C40.1289 10.7871 40.502 10.7461 40.8535 10.6641C41.2051 10.582 41.5723 10.4512 41.9551 10.2715V11.6543C41.6426 11.8105 41.3086 11.9258 40.9531 12C40.5977 12.0781 40.1641 12.1172 39.6523 12.1172ZM46.4375 12.1172C44.3984 12.1172 43.3789 10.998 43.3789 8.75977C43.3789 7.64648 43.6562 6.79688 44.2109 6.21094C44.7656 5.62109 45.5605 5.32617 46.5957 5.32617C47.3535 5.32617 48.0332 5.47461 48.6348 5.77148L48.1074 7.1543C47.8262 7.04102 47.5645 6.94922 47.3223 6.87891C47.0801 6.80469 46.8379 6.76758 46.5957 6.76758C45.666 6.76758 45.2012 7.42773 45.2012 8.74805C45.2012 10.0293 45.666 10.6699 46.5957 10.6699C46.9395 10.6699 47.2578 10.625 47.5508 10.5352C47.8438 10.4414 48.1367 10.2969 48.4297 10.1016V11.6309C48.1406 11.8145 47.8477 11.9414 47.5508 12.0117C47.2578 12.082 46.8867 12.1172 46.4375 12.1172ZM51.7402 7.98047H53C54.0078 7.98047 54.7539 8.14062 55.2383 8.46094C55.7227 8.78125 55.9648 9.26562 55.9648 9.91406C55.9648 11.3047 55 12 53.0703 12H49.9531V5.44922H51.7402V7.98047ZM54.1777 9.9375C54.1777 9.68359 54.0762 9.5 53.873 9.38672C53.6699 9.27344 53.3672 9.2168 52.9648 9.2168H51.7402V10.7637H52.9883C53.7812 10.7637 54.1777 10.4883 54.1777 9.9375ZM67.2441 12H65.4336V4.94531H63.3359L63.2422 5.73047C63 7.72656 62.7852 9.12695 62.5977 9.93164C62.4141 10.7324 62.1465 11.2969 61.7949 11.625C61.4473 11.9531 60.9648 12.1172 60.3477 12.1172C60.0195 12.1172 59.7305 12.0742 59.4805 11.9883V10.5C59.707 10.5781 59.9199 10.6172 60.1191 10.6172C60.3262 10.6172 60.4902 10.5234 60.6113 10.3359C60.7324 10.1445 60.8457 9.79297 60.9512 9.28125C61.0605 8.76562 61.2031 7.92383 61.3789 6.75586C61.5586 5.58398 61.7109 4.47656 61.8359 3.43359H67.2441V12ZM71.9785 6.59766C71.5996 6.59766 71.3027 6.71875 71.0879 6.96094C70.873 7.19922 70.75 7.53906 70.7188 7.98047H73.2266C73.2188 7.53906 73.1035 7.19922 72.8809 6.96094C72.6582 6.71875 72.3574 6.59766 71.9785 6.59766ZM72.2305 12.1172C71.1758 12.1172 70.3516 11.8262 69.7578 11.2441C69.1641 10.6621 68.8672 9.83789 68.8672 8.77148C68.8672 7.67383 69.1406 6.82617 69.6875 6.22852C70.2383 5.62695 70.998 5.32617 71.9668 5.32617C72.8926 5.32617 73.6133 5.58984 74.1289 6.11719C74.6445 6.64453 74.9023 7.37305 74.9023 8.30273V9.16992H70.6777C70.6973 9.67773 70.8477 10.0742 71.1289 10.3594C71.4102 10.6445 71.8047 10.7871 72.3125 10.7871C72.707 10.7871 73.0801 10.7461 73.4316 10.6641C73.7832 10.582 74.1504 10.4512 74.5332 10.2715V11.6543C74.2207 11.8105 73.8867 11.9258 73.5312 12C73.1758 12.0781 72.7422 12.1172 72.2305 12.1172ZM80.8789 5.44922V6.79102H78.1426V12H76.3555V5.44922H80.8789ZM86.3926 5.44922H88.3613L85.7656 8.58984L88.5898 12H86.5625L83.8848 8.67773V12H82.0977V5.44922H83.8848V8.63086L86.3926 5.44922ZM90.834 8.71289C90.834 9.36133 90.9395 9.85156 91.1504 10.1836C91.3652 10.5156 91.7129 10.6816 92.1934 10.6816C92.6699 10.6816 93.0117 10.5176 93.2188 10.1895C93.4297 9.85742 93.5352 9.36523 93.5352 8.71289C93.5352 8.06445 93.4297 7.57812 93.2188 7.25391C93.0078 6.92969 92.6621 6.76758 92.1816 6.76758C91.7051 6.76758 91.3613 6.92969 91.1504 7.25391C90.9395 7.57422 90.834 8.06055 90.834 8.71289ZM95.3633 8.71289C95.3633 9.7793 95.082 10.6133 94.5195 11.2148C93.957 11.8164 93.1738 12.1172 92.1699 12.1172C91.541 12.1172 90.9863 11.9805 90.5059 11.707C90.0254 11.4297 89.6562 11.0332 89.3984 10.5176C89.1406 10.002 89.0117 9.40039 89.0117 8.71289C89.0117 7.64258 89.291 6.81055 89.8496 6.2168C90.4082 5.62305 91.1934 5.32617 92.2051 5.32617C92.834 5.32617 93.3887 5.46289 93.8691 5.73633C94.3496 6.00977 94.7188 6.40234 94.9766 6.91406C95.2344 7.42578 95.3633 8.02539 95.3633 8.71289Z" fill="#3F3F3F"/>
<path fill-rule="evenodd" clip-rule="evenodd" d="M15 7.5C15 11.6423 11.6423 15 7.5 15C3.35775 15 0 11.6423 0 7.5C0 3.35775 3.35775 0 7.5 0C11.6423 0 15 3.35775 15 7.5Z" fill="#FC1F24"/>
<path fill-rule="evenodd" clip-rule="evenodd" d="M13.2689 7.4997C13.2689 10.6862 10.6859 13.2689 7.4997 13.2689C4.31355 13.2689 1.73047 10.6862 1.73047 7.4997C1.73047 4.31316 4.31355 1.73047 7.4997 1.73047C10.6859 1.73047 13.2689 4.31316 13.2689 7.4997Z" fill="#FED837"/>
<path fill-rule="evenodd" clip-rule="evenodd" d="M10.3864 7.49985C10.3864 8.2649 10.0825 8.99862 9.54155 9.53959C9.00058 10.0806 8.26686 10.3845 7.50181 10.3845C6.73676 10.3845 6.00305 10.0806 5.46207 9.53959C4.9211 8.99862 4.61719 8.2649 4.61719 7.49985C4.61719 6.73481 4.9211 6.00109 5.46207 5.46012C6.00305 4.91915 6.73676 4.61523 7.50181 4.61523C8.26686 4.61523 9.00058 4.91915 9.54155 5.46012C10.0825 6.00109 10.3864 6.73481 10.3864 7.49985Z" fill="#FC1F24"/>
</svg>
