<svg width="105" height="105" viewBox="0 0 105 105" fill="none" xmlns="http://www.w3.org/2000/svg">
<g clip-path="url(#clip0)">
<path d="M34.5787 43.8515C38.5914 43.8515 41.8449 40.5979 41.8449 36.585C41.8449 32.5721 38.5914 29.3184 34.5787 29.3184C30.5645 29.3184 27.3125 32.5721 27.3125 36.585C27.3125 40.5979 30.5645 43.8515 34.5787 43.8515Z" fill="#FFD524"/>
<path d="M57.7905 18.4925C59.8419 18.8805 61.4108 19.947 61.7254 20.9637C61.8606 21.4009 62.2646 21.6992 62.7226 21.6992C63.1806 21.6992 63.5846 21.4009 63.72 20.9637C64.1135 19.6914 66.1393 18.3393 69.1181 18.3393C71.1721 18.3393 73.0478 19.017 74.013 20.1086C74.2972 20.4299 74.7487 20.545 75.1525 20.3979C75.5557 20.251 75.8278 19.8723 75.8386 19.4429C75.9233 16.0637 75.4008 9.713 70.9507 5.15048C67.8974 2.01977 63.5465 0.293985 58.0026 0.00931567L54.8597 0C49.2166 0.251956 44.7949 1.98056 41.7032 5.15048C37.2533 9.713 36.7308 16.0637 36.8153 19.4429C36.8261 19.8721 37.0982 20.2508 37.5014 20.3979C37.9043 20.5447 38.3565 20.4299 38.6409 20.1086C39.6061 19.017 41.4816 18.3393 43.536 18.3393C46.5148 18.3393 48.5409 19.6914 48.9341 20.9635C49.0695 21.4009 49.4736 21.6992 49.9315 21.6992C50.3891 21.6992 50.7936 21.4009 50.929 20.9637C51.2539 19.9132 52.6922 18.809 54.8602 18.4559V37.1457C54.5398 37.5127 54.3441 37.9915 54.3441 38.5168V42.354C54.3441 42.354 46.7421 45.8541 43.3304 46.9035C41.8269 47.3663 40.1709 48.2207 38.6494 47.0738C36.1957 45.2239 30.4371 44.7575 27.3118 48.07C24.1865 51.3824 17.594 59.3575 14.7371 63.6163C13.5703 65.3605 14.0339 67.721 15.7768 68.8894C16.4267 69.3249 17.1603 69.5333 17.8887 69.5333C19.1133 69.5333 20.3172 68.942 21.0482 67.8484C22.1539 66.2011 24.8477 62.2909 26.5492 60.1112C26.7767 59.8196 27.1495 59.9097 27.1632 60.2156C27.3529 64.4519 27.2633 68.2436 27.4091 73.6094C27.4381 74.6749 27.3839 75.1017 26.7045 76.6639C26.0254 78.2261 20.2815 91.2232 17.7368 99.882C17.115 101.996 18.3256 104.214 20.4388 104.836C20.9173 104.977 21.4009 105.024 21.8669 104.989C23.4759 104.867 24.9122 103.77 25.393 102.133C27.7407 94.149 33.2112 81.3011 33.4387 80.831C33.6456 80.4038 34.0035 80.5485 34.0877 80.839C34.1464 81.0438 39.5342 95.6163 41.7964 102.354C43.4389 107.265 51.0589 104.715 49.4118 99.8031C46.9408 92.4353 43.5444 83.7743 41.0812 76.4072C40.9378 75.9853 40.5905 74.3304 40.5422 73.7892C40.1845 69.8034 39.9544 57.7892 39.9544 56.833C39.9544 55.8767 40.5682 55.4974 41.0219 55.3401C48.7708 52.6548 52.9251 51.4999 56.5151 48.4458C56.9709 48.058 57.3072 47.6425 57.5409 47.2179C58.0767 46.3242 58.3072 45.2581 58.3072 44.0956V38.5173C58.3072 37.9919 58.1116 37.5131 57.7909 37.1461L57.7905 18.4925Z" fill="#FFD524"/>
<path d="M78.22 47.5606C77.4488 47.4713 76.5365 47.3964 75.5637 47.3936C74.5908 47.3964 73.6785 47.4715 72.9075 47.5606C62.74 48.7367 59.4411 60.517 60.3733 69.489C60.7774 73.3678 66.8919 73.4075 66.4833 69.489C66.1746 66.51 66.268 62.1498 67.6012 58.7459C67.7312 58.414 68.0276 58.3562 68.0276 58.7626C68.0246 65.3826 67.9869 92.0752 67.5926 101.626C67.4065 106.133 74.3941 106.115 74.5789 101.626C74.9067 93.6801 75.0087 78.4893 75.0087 77.7793C75.0087 77.3963 75.2977 77.2195 75.5637 77.2494C75.83 77.2195 76.119 77.3965 76.119 77.7793C76.119 78.4891 76.2208 93.6801 76.5486 101.626C76.7336 106.115 83.721 106.133 83.5349 101.626C83.1406 92.0752 83.1029 65.3826 83.0999 58.7626C83.0997 58.3562 83.3963 58.414 83.5263 58.7459C84.8593 62.1498 84.9529 66.5098 84.6439 69.489C84.2353 73.4075 90.3497 73.3678 90.7539 69.489C91.6859 60.517 88.3871 48.7367 78.22 47.5606Z" fill="#FFD524"/>
<path d="M75.564 31.9364C75.5272 31.936 75.4908 31.9336 75.4537 31.9336C71.7192 31.9336 68.6914 34.9603 68.6914 38.6966C68.6914 42.4293 71.7192 45.4576 75.4537 45.4576C75.4908 45.4576 75.5272 45.4554 75.564 45.4548C75.6008 45.4554 75.637 45.4576 75.6741 45.4576C79.4086 45.4576 82.4364 42.4293 82.4364 38.6966C82.4364 34.9603 79.4086 31.9336 75.6741 31.9336C75.6372 31.9336 75.6008 31.936 75.564 31.9364Z" fill="#FFD524"/>
</g>
<defs>
<clipPath id="clip0">
<rect width="105" height="105" fill="white"/>
</clipPath>
</defs>
</svg>
