<svg width="96" height="96" viewBox="0 0 96 96" fill="none" xmlns="http://www.w3.org/2000/svg">
<g clip-path="url(#clip0)">
<path d="M58.2834 81.8477H51.9161V23.4945H78.7502L67.3838 41.5306C66.8074 42.4451 67.0816 43.6543 67.9963 44.2305C68.3206 44.4351 68.6812 44.5321 69.0381 44.5321C69.6882 44.5321 70.3239 44.2084 70.696 43.6184L80.5537 27.9759L90.4111 43.6184C90.9877 44.5329 92.1969 44.8072 93.1112 44.2305C94.0257 43.6543 94.2995 42.4451 93.7233 41.5306L82.3573 23.4945H82.5009C84.1765 23.4945 85.5351 22.1359 85.5351 20.4603C85.5351 18.7849 84.1767 17.4263 82.5009 17.4263H60.1796C58.9191 15.5927 57.0588 14.2044 54.8808 13.5454C54.5697 10.0182 51.6091 7.25195 48.001 7.25195C44.3926 7.25195 41.4323 10.0182 41.1209 13.5454C38.9429 14.2044 37.0826 15.5927 35.8223 17.4263H13.5011C11.8252 17.4263 10.4666 18.7849 10.4666 20.4603C10.4666 22.1359 11.825 23.4945 13.5011 23.4945H13.6447L2.27825 41.5306C1.70184 42.4451 1.97606 43.6543 2.89057 44.2305C3.21488 44.4351 3.57571 44.5321 3.93237 44.5321C4.58225 44.5321 5.21836 44.2084 5.59046 43.6184L15.4482 27.9759L25.3057 43.6184C25.8821 44.5329 27.0911 44.8072 28.0056 44.2305C28.9203 43.6543 29.1944 42.4451 28.6181 41.5306L17.252 23.4945H44.086V81.8473H37.7189C33.9084 81.8473 30.8191 84.9368 30.8191 88.7474H65.1831C65.1831 84.9368 62.0938 81.8477 58.2834 81.8477Z" fill="#FFD524"/>
<path d="M29.8508 46.6143H1.04348C0.46727 46.6143 0 47.0813 0 47.6577C0 56.1752 6.92953 63.1048 15.4472 63.1048C23.9647 63.1048 30.8945 56.1752 30.8945 47.6577C30.8943 47.0815 30.427 46.6143 29.8508 46.6143Z" fill="#FFD524"/>
<path d="M94.9563 46.6143H66.1489C65.5727 46.6143 65.1055 47.0813 65.1055 47.6577C65.1055 56.1752 72.035 63.1048 80.5529 63.1048C89.0705 63.1048 96 56.1752 96 47.6577C95.9998 47.0815 95.5325 46.6143 94.9563 46.6143Z" fill="#FFD524"/>
</g>
<defs>
<clipPath id="clip0">
<rect width="96" height="96" fill="white"/>
</clipPath>
</defs>
</svg>
